<mxfile host="app.diagrams.net" modified="2021-08-20T21:43:09.568Z" agent="5.0 (Windows NT 10.0; Win64; x64) AppleWebKit/537.36 (KHTML, like Gecko) Chrome/92.0.4515.159 Safari/537.36" etag="J-FUoQ_3AuqgkoKEJ_2k" version="14.9.8" type="github">
  <diagram id="ZK0pwpVW_d0lEcmW2ax-" name="Page-1">
    <mxGraphModel dx="720" dy="476" grid="1" gridSize="10" guides="1" tooltips="1" connect="1" arrows="1" fold="1" page="1" pageScale="1" pageWidth="850" pageHeight="1100" math="0" shadow="1">
      <root>
        <mxCell id="0" />
        <mxCell id="1" parent="0" />
        <mxCell id="w1TOoY8ma_EO1C4a4v3h-1" value="soong buld system" style="text;html=1;strokeColor=none;fillColor=none;align=center;verticalAlign=middle;whiteSpace=wrap;rounded=0;" vertex="1" parent="1">
          <mxGeometry x="110" y="100" width="130" height="20" as="geometry" />
        </mxCell>
        <mxCell id="w1TOoY8ma_EO1C4a4v3h-3" style="edgeStyle=orthogonalEdgeStyle;orthogonalLoop=1;jettySize=auto;html=1;curved=1;endArrow=diamondThin;endFill=1;" edge="1" parent="1" source="w1TOoY8ma_EO1C4a4v3h-2" target="w1TOoY8ma_EO1C4a4v3h-1">
          <mxGeometry relative="1" as="geometry" />
        </mxCell>
        <mxCell id="w1TOoY8ma_EO1C4a4v3h-2" value="blueprint build system" style="text;html=1;strokeColor=none;fillColor=none;align=center;verticalAlign=middle;whiteSpace=wrap;rounded=0;" vertex="1" parent="1">
          <mxGeometry x="110" y="190" width="120" height="20" as="geometry" />
        </mxCell>
        <mxCell id="w1TOoY8ma_EO1C4a4v3h-6" style="edgeStyle=orthogonalEdgeStyle;curved=1;orthogonalLoop=1;jettySize=auto;html=1;entryX=0.5;entryY=1;entryDx=0;entryDy=0;endArrow=diamondThin;endFill=1;" edge="1" parent="1" source="w1TOoY8ma_EO1C4a4v3h-5" target="w1TOoY8ma_EO1C4a4v3h-2">
          <mxGeometry relative="1" as="geometry" />
        </mxCell>
        <mxCell id="w1TOoY8ma_EO1C4a4v3h-5" value="android.bp" style="shape=document;whiteSpace=wrap;html=1;boundedLbl=1;" vertex="1" parent="1">
          <mxGeometry x="60" y="280" width="100" height="30" as="geometry" />
        </mxCell>
        <mxCell id="w1TOoY8ma_EO1C4a4v3h-26" style="edgeStyle=orthogonalEdgeStyle;curved=1;orthogonalLoop=1;jettySize=auto;html=1;exitX=0.5;exitY=0;exitDx=0;exitDy=0;entryX=0;entryY=0;entryDx=130;entryDy=10;entryPerimeter=0;endArrow=open;endFill=0;" edge="1" parent="1" source="w1TOoY8ma_EO1C4a4v3h-8" target="w1TOoY8ma_EO1C4a4v3h-23">
          <mxGeometry relative="1" as="geometry">
            <Array as="points">
              <mxPoint x="410" y="60" />
            </Array>
          </mxGeometry>
        </mxCell>
        <mxCell id="w1TOoY8ma_EO1C4a4v3h-8" value="AOSP" style="shape=internalStorage;whiteSpace=wrap;html=1;backgroundOutline=1;" vertex="1" parent="1">
          <mxGeometry x="370" y="120" width="80" height="80" as="geometry" />
        </mxCell>
        <mxCell id="w1TOoY8ma_EO1C4a4v3h-13" style="edgeStyle=orthogonalEdgeStyle;curved=1;orthogonalLoop=1;jettySize=auto;html=1;exitX=0.5;exitY=0;exitDx=0;exitDy=0;endArrow=diamondThin;endFill=1;" edge="1" parent="1" source="w1TOoY8ma_EO1C4a4v3h-9" target="w1TOoY8ma_EO1C4a4v3h-8">
          <mxGeometry relative="1" as="geometry" />
        </mxCell>
        <mxCell id="w1TOoY8ma_EO1C4a4v3h-17" style="edgeStyle=orthogonalEdgeStyle;curved=1;orthogonalLoop=1;jettySize=auto;html=1;exitX=0.5;exitY=1;exitDx=0;exitDy=0;entryX=1;entryY=0.25;entryDx=0;entryDy=0;endArrow=open;endFill=0;" edge="1" parent="1" source="w1TOoY8ma_EO1C4a4v3h-9" target="w1TOoY8ma_EO1C4a4v3h-5">
          <mxGeometry relative="1" as="geometry" />
        </mxCell>
        <mxCell id="w1TOoY8ma_EO1C4a4v3h-9" value="module-1" style="rounded=1;whiteSpace=wrap;html=1;" vertex="1" parent="1">
          <mxGeometry x="250" y="250" width="90" height="30" as="geometry" />
        </mxCell>
        <mxCell id="w1TOoY8ma_EO1C4a4v3h-14" style="edgeStyle=orthogonalEdgeStyle;curved=1;orthogonalLoop=1;jettySize=auto;html=1;exitX=0.5;exitY=0;exitDx=0;exitDy=0;endArrow=diamondThin;endFill=1;entryX=0.5;entryY=1;entryDx=0;entryDy=0;" edge="1" parent="1" source="w1TOoY8ma_EO1C4a4v3h-10" target="w1TOoY8ma_EO1C4a4v3h-8">
          <mxGeometry relative="1" as="geometry">
            <mxPoint x="350" y="200" as="targetPoint" />
          </mxGeometry>
        </mxCell>
        <mxCell id="w1TOoY8ma_EO1C4a4v3h-18" style="edgeStyle=orthogonalEdgeStyle;curved=1;orthogonalLoop=1;jettySize=auto;html=1;exitX=0.5;exitY=1;exitDx=0;exitDy=0;entryX=1;entryY=0.5;entryDx=0;entryDy=0;endArrow=open;endFill=0;" edge="1" parent="1" source="w1TOoY8ma_EO1C4a4v3h-10" target="w1TOoY8ma_EO1C4a4v3h-20">
          <mxGeometry relative="1" as="geometry" />
        </mxCell>
        <mxCell id="w1TOoY8ma_EO1C4a4v3h-10" value="module-2" style="rounded=1;whiteSpace=wrap;html=1;" vertex="1" parent="1">
          <mxGeometry x="360" y="250" width="90" height="30" as="geometry" />
        </mxCell>
        <mxCell id="w1TOoY8ma_EO1C4a4v3h-16" style="edgeStyle=orthogonalEdgeStyle;curved=1;orthogonalLoop=1;jettySize=auto;html=1;exitX=0.5;exitY=0;exitDx=0;exitDy=0;endArrow=diamondThin;endFill=1;" edge="1" parent="1" source="w1TOoY8ma_EO1C4a4v3h-12">
          <mxGeometry relative="1" as="geometry">
            <mxPoint x="410" y="200" as="targetPoint" />
          </mxGeometry>
        </mxCell>
        <mxCell id="w1TOoY8ma_EO1C4a4v3h-19" style="edgeStyle=orthogonalEdgeStyle;curved=1;orthogonalLoop=1;jettySize=auto;html=1;exitX=0.5;exitY=1;exitDx=0;exitDy=0;entryX=1;entryY=0.25;entryDx=0;entryDy=0;endArrow=openThin;endFill=0;" edge="1" parent="1" source="w1TOoY8ma_EO1C4a4v3h-12" target="w1TOoY8ma_EO1C4a4v3h-21">
          <mxGeometry relative="1" as="geometry" />
        </mxCell>
        <mxCell id="w1TOoY8ma_EO1C4a4v3h-33" style="edgeStyle=orthogonalEdgeStyle;curved=1;orthogonalLoop=1;jettySize=auto;html=1;exitX=1;exitY=0.5;exitDx=0;exitDy=0;entryX=0;entryY=0.5;entryDx=0;entryDy=0;endArrow=open;endFill=0;" edge="1" parent="1" source="w1TOoY8ma_EO1C4a4v3h-12" target="w1TOoY8ma_EO1C4a4v3h-31">
          <mxGeometry relative="1" as="geometry" />
        </mxCell>
        <mxCell id="w1TOoY8ma_EO1C4a4v3h-12" value="module..." style="rounded=1;whiteSpace=wrap;html=1;fillColor=#fff2cc;strokeColor=#d6b656;" vertex="1" parent="1">
          <mxGeometry x="470" y="250" width="90" height="30" as="geometry" />
        </mxCell>
        <mxCell id="w1TOoY8ma_EO1C4a4v3h-20" value="android.bp" style="shape=document;whiteSpace=wrap;html=1;boundedLbl=1;" vertex="1" parent="1">
          <mxGeometry x="60" y="310" width="100" height="30" as="geometry" />
        </mxCell>
        <mxCell id="w1TOoY8ma_EO1C4a4v3h-21" value="android.bp" style="shape=document;whiteSpace=wrap;html=1;boundedLbl=1;" vertex="1" parent="1">
          <mxGeometry x="60" y="340" width="100" height="30" as="geometry" />
        </mxCell>
        <mxCell id="w1TOoY8ma_EO1C4a4v3h-24" style="edgeStyle=orthogonalEdgeStyle;curved=1;orthogonalLoop=1;jettySize=auto;html=1;entryX=1;entryY=0.5;entryDx=0;entryDy=0;endArrow=open;endFill=0;" edge="1" parent="1" source="w1TOoY8ma_EO1C4a4v3h-23" target="w1TOoY8ma_EO1C4a4v3h-1">
          <mxGeometry relative="1" as="geometry" />
        </mxCell>
        <mxCell id="w1TOoY8ma_EO1C4a4v3h-23" value="build/envsetup.sh" style="shape=note;whiteSpace=wrap;html=1;backgroundOutline=1;darkOpacity=0.05;" vertex="1" parent="1">
          <mxGeometry x="240" y="50" width="140" height="20" as="geometry" />
        </mxCell>
        <mxCell id="w1TOoY8ma_EO1C4a4v3h-27" value="gradle build system" style="text;html=1;strokeColor=none;fillColor=none;align=center;verticalAlign=middle;whiteSpace=wrap;rounded=0;" vertex="1" parent="1">
          <mxGeometry x="630" y="200" width="120" height="20" as="geometry" />
        </mxCell>
        <mxCell id="w1TOoY8ma_EO1C4a4v3h-32" style="edgeStyle=orthogonalEdgeStyle;curved=1;orthogonalLoop=1;jettySize=auto;html=1;exitX=0.5;exitY=0;exitDx=0;exitDy=0;entryX=0.5;entryY=1;entryDx=0;entryDy=0;endArrow=diamondThin;endFill=1;" edge="1" parent="1" source="w1TOoY8ma_EO1C4a4v3h-31" target="w1TOoY8ma_EO1C4a4v3h-27">
          <mxGeometry relative="1" as="geometry" />
        </mxCell>
        <mxCell id="w1TOoY8ma_EO1C4a4v3h-31" value="build.gradle" style="shape=document;whiteSpace=wrap;html=1;boundedLbl=1;" vertex="1" parent="1">
          <mxGeometry x="640" y="250" width="100" height="30" as="geometry" />
        </mxCell>
        <mxCell id="w1TOoY8ma_EO1C4a4v3h-35" style="orthogonalLoop=1;jettySize=auto;html=1;exitX=0.5;exitY=0;exitDx=0;exitDy=0;entryX=0.75;entryY=1;entryDx=0;entryDy=0;endArrow=none;endFill=0;dashed=1;" edge="1" parent="1" source="w1TOoY8ma_EO1C4a4v3h-34" target="w1TOoY8ma_EO1C4a4v3h-12">
          <mxGeometry relative="1" as="geometry" />
        </mxCell>
        <mxCell id="w1TOoY8ma_EO1C4a4v3h-34" value="an AOSP module &amp;amp; a gradle project" style="text;html=1;strokeColor=none;fillColor=none;align=center;verticalAlign=middle;whiteSpace=wrap;rounded=0;" vertex="1" parent="1">
          <mxGeometry x="520" y="330" width="100" height="20" as="geometry" />
        </mxCell>
        <mxCell id="w1TOoY8ma_EO1C4a4v3h-36" style="edgeStyle=none;orthogonalLoop=1;jettySize=auto;html=1;exitX=0.75;exitY=1;exitDx=0;exitDy=0;dashed=1;endArrow=none;endFill=0;" edge="1" parent="1" source="w1TOoY8ma_EO1C4a4v3h-34" target="w1TOoY8ma_EO1C4a4v3h-34">
          <mxGeometry relative="1" as="geometry" />
        </mxCell>
      </root>
    </mxGraphModel>
  </diagram>
</mxfile>
